<?xml version="1.0" encoding="UTF-8" standalone="no"?>
<!-- Generator: Adobe Illustrator 22.1.0, SVG Export Plug-In . SVG Version: 6.00 Build 0)  -->

<svg
   xmlns:dc="http://purl.org/dc/elements/1.1/"
   xmlns:cc="http://creativecommons.org/ns#"
   xmlns:rdf="http://www.w3.org/1999/02/22-rdf-syntax-ns#"
   xmlns:svg="http://www.w3.org/2000/svg"
   xmlns="http://www.w3.org/2000/svg"
   xmlns:sodipodi="http://sodipodi.sourceforge.net/DTD/sodipodi-0.dtd"
   xmlns:inkscape="http://www.inkscape.org/namespaces/inkscape"
   version="1.1"
   x="0px"
   y="0px"
   viewBox="0 0 1920 1080"
   style="enable-background:new 0 0 1920 1080;"
   xml:space="preserve"
   id="svg2"
   inkscape:version="0.48.5 r10040"
   width="100%"
   height="100%"
   sodipodi:docname="logo 1  cumbre.svg"><metadata
   id="metadata46"><rdf:RDF><cc:Work
       rdf:about=""><dc:format>image/svg+xml</dc:format><dc:type
         rdf:resource="http://purl.org/dc/dcmitype/StillImage" /></cc:Work></rdf:RDF></metadata><defs
   id="defs44" /><sodipodi:namedview
   pagecolor="#ffffff"
   bordercolor="#666666"
   borderopacity="1"
   objecttolerance="10"
   gridtolerance="10"
   guidetolerance="10"
   inkscape:pageopacity="0"
   inkscape:pageshadow="2"
   inkscape:window-width="1366"
   inkscape:window-height="705"
   id="namedview42"
   showgrid="false"
   inkscape:zoom="0.41699219"
   inkscape:cx="960"
   inkscape:cy="540"
   inkscape:window-x="-8"
   inkscape:window-y="-8"
   inkscape:window-maximized="1"
   inkscape:current-layer="Capa_1" />
<style
   type="text/css"
   id="style4">
	.st0{fill:#000517;}
	.st1{fill:#FFFFFF;}
	.st2{font-family:'MyriadPro-Regular';}
	.st3{font-size:90px;}
	.st4{font-family:'Roboto-Black';}
	.st5{fill:#04AADA;}
	.st6{fill:#E92F3D;}
	.st7{fill:#FFDC10;}
	.st8{fill:#E2710B;}
</style>

<g
   id="Capa_1">
	
	
	
	
	
	
	<g
   id="g3023"
   transform="translate(429.26464,95.925059)"><g
     id="g18">
		<path
   id="path20"
   d="m 739.5,358.2 c 6.5,-33.5 8.9,-67.5 7.4,-101.2 -20.4,-33.3 -48.1,-62.9 -82.6,-86.1 -35.9,-24.2 -75.4,-39 -115.5,-45 -57.6,-8.6 -116.7,0.9 -168.5,27 29.9,0.5 59.8,4.2 89.4,11 49.8,11.6 98.4,32.3 143.4,62.6 52.7,35.5 95.2,80.7 126.4,131.7 z"
   class="st5"
   inkscape:connector-curvature="0"
   style="fill:#04aada" />
	</g><g
     id="g22">
		<path
   id="path24"
   d="m 641.5,651.8 c -33,0.9 -66.2,-2 -99,-8.9 -53.1,-11.1 -105,-32.4 -152.8,-64.6 -48.9,-33 -88.9,-74.2 -119.3,-120.6 -5.2,29.9 -7.1,60 -5.9,90 20.6,35 49.2,66 85.1,90.2 34.5,23.2 72.3,37.8 110.8,44.3 62,10.4 126,-0.5 181.1,-30.4 z"
   class="st6"
   inkscape:connector-curvature="0"
   style="fill:#e92f3d" />
	</g><g
     id="g26">
		<path
   id="path28"
   d="m 264.4,547.7 c -1.2,-29.9 0.8,-60.1 5.9,-90 -17.7,-26.9 -32.1,-55.5 -43.3,-85.2 -6.8,60.7 6.3,122.4 37.4,175.2 z"
   class="st7"
   inkscape:connector-curvature="0"
   style="fill:#ffdc10" />
	</g><g
     id="g30">
		<path
   id="path32"
   d="m 469.6,163.8 c -29.5,-6.8 -59.5,-10.5 -89.4,-11 -41.8,21 -78.9,52.7 -106.9,94.2 -26.2,38.9 -41.4,81.9 -46.3,125.5 11.1,29.8 25.6,58.3 43.3,85.2 10,-58.2 32.3,-115.3 67.4,-167.4 35.6,-52.8 80.9,-95.2 131.9,-126.5 z"
   class="st7"
   inkscape:connector-curvature="0"
   style="fill:#ffdc10" />
	</g><g
     id="g34">
		<path
   id="path36"
   d="m 740.4,561.8 c 22.2,-33 36.5,-68.9 43.4,-105.7 -10.6,-34.2 -25.4,-67.1 -44.3,-98 -10.7,55.1 -32.4,109.1 -65.8,158.6 -35.5,52.6 -80.5,94.9 -131.3,126.1 32.8,6.8 66,9.7 99,8.9 38.6,-20.8 72.8,-51 99,-89.9 z"
   class="st8"
   inkscape:connector-curvature="0"
   style="fill:#e2710b" />
	</g><g
     id="g38">
		<path
   id="path40"
   d="m 783.8,456.1 c 12.8,-68.6 -0.4,-139.8 -36.9,-199.2 1.5,33.7 -0.9,67.7 -7.4,101.2 18.9,31 33.7,63.9 44.3,98 z"
   class="st8"
   inkscape:connector-curvature="0"
   style="fill:#e2710b" />
	</g></g>
</g>
</svg>